<svg width="148" height="72" viewBox="0 0 148 72" fill="none" xmlns="http://www.w3.org/2000/svg">
<path d="M10.9773 56.4474V71.3792H2.64204V36.4702H10.7045V50.0042H10.9943C11.5852 48.3906 12.5511 47.1292 13.892 46.2202C15.2443 45.3111 16.8977 44.8565 18.8523 44.8565C20.6932 44.8565 22.2955 45.2656 23.6591 46.0838C25.0227 46.8906 26.0795 48.0327 26.8295 49.5099C27.5909 50.9872 27.9659 52.7145 27.9545 54.6917V71.3792H19.6193V56.3281C19.6307 54.8736 19.267 53.7372 18.5284 52.919C17.7898 52.1008 16.75 51.6917 15.4091 51.6917C14.5341 51.6917 13.7614 51.8849 13.0909 52.2713C12.4318 52.6463 11.9148 53.1861 11.5398 53.8906C11.1761 54.5952 10.9886 55.4474 10.9773 56.4474Z" fill="white"/>
<path d="M40.5384 71.8224C38.8679 71.8224 37.3849 71.544 36.0895 70.9872C34.8054 70.419 33.7884 69.5667 33.0384 68.4304C32.2997 67.2827 31.9304 65.8452 31.9304 64.1179C31.9304 62.6633 32.1861 61.4361 32.6974 60.4361C33.2088 59.4361 33.9134 58.6236 34.8111 57.9986C35.7088 57.3736 36.7429 56.902 37.9134 56.5838C39.0838 56.2542 40.3338 56.0327 41.6634 55.919C43.152 55.7827 44.3509 55.6406 45.2599 55.4929C46.169 55.3338 46.8281 55.1122 47.2372 54.8281C47.6577 54.5327 47.8679 54.1179 47.8679 53.5838V53.4986C47.8679 52.6236 47.5668 51.9474 46.9645 51.4702C46.3622 50.9929 45.5497 50.7542 44.527 50.7542C43.4247 50.7542 42.5384 50.9929 41.8679 51.4702C41.1974 51.9474 40.7713 52.6065 40.5895 53.4474L32.902 53.1747C33.1293 51.5838 33.7145 50.1633 34.6577 48.9133C35.6122 47.652 36.919 46.6633 38.5781 45.9474C40.2486 45.2202 42.2543 44.8565 44.5952 44.8565C46.2656 44.8565 47.8054 45.0554 49.2145 45.4531C50.6236 45.8395 51.8509 46.4077 52.8963 47.1577C53.9418 47.8963 54.7486 48.8054 55.3168 49.8849C55.8963 50.9645 56.1861 52.1974 56.1861 53.5838V71.3792H48.3452V67.7315H48.1406C47.6747 68.6179 47.0781 69.3679 46.3509 69.9815C45.6349 70.5952 44.7884 71.0554 43.8111 71.3622C42.8452 71.669 41.7543 71.8224 40.5384 71.8224ZM43.1122 66.3679C44.0099 66.3679 44.8168 66.1861 45.5327 65.8224C46.2599 65.4588 46.8395 64.9588 47.2713 64.3224C47.7031 63.6747 47.919 62.9247 47.919 62.0724V59.5838C47.6804 59.7088 47.3906 59.8224 47.0497 59.9247C46.7202 60.027 46.3565 60.1236 45.9588 60.2145C45.5611 60.3054 45.152 60.3849 44.7315 60.4531C44.3111 60.5213 43.9077 60.5838 43.5213 60.6406C42.7372 60.7656 42.0668 60.9588 41.5099 61.2202C40.9645 61.4815 40.544 61.8224 40.2486 62.2429C39.9645 62.652 39.8224 63.1406 39.8224 63.7088C39.8224 64.5724 40.1293 65.2315 40.7429 65.6861C41.3679 66.1406 42.1577 66.3679 43.1122 66.3679Z" fill="white"/>
<path d="M61.2827 71.3792V36.4702H69.6179V49.6804H69.7884C70.1293 48.8849 70.6122 48.1179 71.2372 47.3792C71.8736 46.6406 72.6804 46.0383 73.6577 45.5724C74.6463 45.0952 75.8281 44.8565 77.2031 44.8565C79.0213 44.8565 80.7202 45.3338 82.2997 46.2883C83.8906 47.2429 85.1747 48.7145 86.152 50.7031C87.1293 52.6917 87.6179 55.2258 87.6179 58.3054C87.6179 61.2713 87.1463 63.7542 86.2031 65.7542C85.2713 67.7542 84.0099 69.2542 82.419 70.2542C80.8395 71.2542 79.0838 71.7542 77.152 71.7542C75.8338 71.7542 74.6918 71.5383 73.7259 71.1065C72.7599 70.6747 71.9474 70.1065 71.2884 69.402C70.6406 68.6974 70.1406 67.9417 69.7884 67.1349H69.5327V71.3792H61.2827ZM69.4474 58.2883C69.4474 59.6974 69.6349 60.9247 70.0099 61.9702C70.3963 63.0156 70.9474 63.8281 71.6634 64.4077C72.3906 64.9758 73.2599 65.2599 74.2713 65.2599C75.294 65.2599 76.1634 64.9758 76.8793 64.4077C77.5952 63.8281 78.1349 63.0156 78.4986 61.9702C78.8736 60.9247 79.0611 59.6974 79.0611 58.2883C79.0611 56.8793 78.8736 55.6577 78.4986 54.6236C78.1349 53.5895 77.5952 52.7883 76.8793 52.2202C76.1747 51.652 75.3054 51.3679 74.2713 51.3679C73.2486 51.3679 72.3793 51.6463 71.6634 52.2031C70.9474 52.7599 70.3963 53.5554 70.0099 54.5895C69.6349 55.6236 69.4474 56.8565 69.4474 58.2883Z" fill="white"/>
<path d="M91.9858 71.3792V45.1974H100.321V71.3792H91.9858ZM96.1619 42.1463C94.9915 42.1463 93.9858 41.7599 93.1449 40.9872C92.304 40.2031 91.8835 39.2599 91.8835 38.1577C91.8835 37.0667 92.304 36.1349 93.1449 35.3622C93.9858 34.5781 94.9915 34.1861 96.1619 34.1861C97.3438 34.1861 98.3494 34.5781 99.179 35.3622C100.02 36.1349 100.44 37.0667 100.44 38.1577C100.44 39.2599 100.02 40.2031 99.179 40.9872C98.3494 41.7599 97.3438 42.1463 96.1619 42.1463Z" fill="white"/>
<path d="M120.405 45.1974V51.3338H103.888V45.1974H120.405ZM107.348 38.9247H115.683V63.1463C115.683 63.6577 115.763 64.0724 115.922 64.3906C116.092 64.6974 116.337 64.919 116.655 65.0554C116.973 65.1804 117.354 65.2429 117.797 65.2429C118.115 65.2429 118.45 65.2145 118.803 65.1577C119.166 65.0895 119.439 65.0327 119.621 64.9872L120.882 71.0042C120.484 71.1179 119.922 71.2599 119.195 71.4304C118.479 71.6008 117.621 71.7088 116.621 71.7542C114.666 71.8452 112.99 71.6179 111.592 71.0724C110.206 70.5156 109.143 69.652 108.405 68.4815C107.678 67.3111 107.325 65.8395 107.348 64.0667V38.9247Z" fill="white"/>
<path d="M147.188 53.1917L139.534 53.3963C139.455 52.8508 139.239 52.3679 138.886 51.9474C138.534 51.5156 138.074 51.1804 137.506 50.9417C136.949 50.6917 136.301 50.5667 135.562 50.5667C134.597 50.5667 133.773 50.7599 133.091 51.1463C132.42 51.5327 132.091 52.0554 132.102 52.7145C132.091 53.2258 132.295 53.669 132.716 54.044C133.148 54.419 133.915 54.7202 135.017 54.9474L140.062 55.902C142.676 56.402 144.619 57.2315 145.892 58.3906C147.176 59.5497 147.824 61.0838 147.835 62.9929C147.824 64.7883 147.29 66.3508 146.233 67.6804C145.188 69.0099 143.756 70.044 141.938 70.7827C140.119 71.5099 138.04 71.8736 135.699 71.8736C131.96 71.8736 129.011 71.1065 126.852 69.5724C124.705 68.027 123.477 65.9588 123.17 63.3679L131.403 63.1633C131.585 64.1179 132.057 64.8452 132.818 65.3452C133.58 65.8452 134.551 66.0952 135.733 66.0952C136.801 66.0952 137.67 65.8963 138.341 65.4986C139.011 65.1008 139.352 64.5724 139.364 63.9133C139.352 63.3224 139.091 62.8508 138.58 62.4986C138.068 62.1349 137.267 61.8508 136.176 61.6463L131.608 60.777C128.983 60.2997 127.028 59.419 125.744 58.1349C124.46 56.8395 123.824 55.1917 123.835 53.1917C123.824 51.4417 124.29 49.9474 125.233 48.7088C126.176 47.4588 127.517 46.5042 129.256 45.8452C130.994 45.1861 133.045 44.8565 135.409 44.8565C138.955 44.8565 141.75 45.6008 143.795 47.0895C145.841 48.5667 146.972 50.6008 147.188 53.1917Z" fill="white"/>
<rect x="0.5" y="0.626419" width="15" height="15" rx="3.5" fill="#18181B" stroke="#27272A"/>
<rect x="20.5" y="0.626419" width="15" height="15" rx="3.5" fill="#4C1D95" stroke="#6D28D9"/>
<rect x="40.5" y="0.626419" width="15" height="15" rx="3.5" fill="#5B21B6" stroke="#7C3AED"/>
<rect x="60.5" y="0.626419" width="15" height="15" rx="3.5" fill="#6D28D9" stroke="#8B5CF6"/>
<rect x="80.5" y="0.626419" width="15" height="15" rx="3.5" fill="#7C3AED" stroke="#A78BFA"/>
<rect x="100.5" y="0.626419" width="15" height="15" rx="3.5" fill="#8B5CF6" stroke="#C4B5FD"/>
</svg>
